<svg width="104" height="108" viewBox="0 0 104 108" fill="none" xmlns="http://www.w3.org/2000/svg">
<path d="M19.5288 50.4007C16.7614 47.6321 14.7876 44.1717 13.8134 40.3804C12.8391 36.589 12.9 32.6057 13.9898 28.846C15.0796 25.0862 17.1583 21.6878 20.0091 19.0052C22.8599 16.3226 26.3784 14.4541 30.1974 13.5946C34.0164 12.7352 37.996 12.9163 41.7212 14.1191C45.4463 15.3218 48.7805 17.5022 51.3759 20.4326C53.9712 23.3631 55.7327 26.9363 56.4765 30.7795C57.2203 34.6227 56.9192 38.5951 55.6046 42.2822L88.0298 74.7075V87.9658H74.7716V79.1269H65.9327V70.2881L57.0939 70.2881V61.4492H48.2551L42.3463 55.5405C38.4464 56.9309 34.2321 57.1861 30.193 56.2762C26.1538 55.3664 22.4559 53.3289 19.5288 50.4007ZM26.158 34.9327C27.3301 36.1048 28.9198 36.7633 30.5774 36.7633C32.235 36.7633 33.8247 36.1048 34.9968 34.9327C36.1689 33.7606 36.8274 32.1709 36.8274 30.5133C36.8274 28.8557 36.1689 27.266 34.9968 26.0939C33.8247 24.9218 32.235 24.2633 30.5774 24.2633C28.9198 24.2633 27.3301 24.9218 26.158 26.0939C24.9859 27.266 24.3274 28.8557 24.3274 30.5133C24.3274 32.1709 24.9859 33.7606 26.158 34.9327Z" fill="white"/>
</svg>
